{"title":"Simpsony.26.sezon","uid":12609931,"size":6385038326,"categoryP":"video","categoryS":"tv_shows","magnet":"?xt=urn:btih:c3aaae262b190db1a941debf5f26bad881d296f8&amp;dn=Simpsony.26.sezon&amp;tr=udp%3A%2F%2Ftracker.leechers-paradise.org%3A6969&amp;tr=udp%3A%2F%2Fzer0day.ch%3A1337&amp;tr=udp%3A%2F%2Fopen.demonii.com%3A1337&amp;tr=udp%3A%2F%2Ftracker.coppersurfer.tk%3A6969&amp;tr=udp%3A%2F%2Fexodus.desync.com%3A6969","seeders":1,"leechers":0,"uploader":"niif111","files":22,"time":1445448839,"description":"Simpsony.26.sezonS26E20.Let's.Go.Fly.a.Coot.avi\r\nFormat                                   : AVI\r\nFormat/Info                              : Audio Video Interleave\r\nFile size                                : 278 MiB\r\nDuration                                 : 21mn 39s\r\nOverall bit rate                         : 1 792 Kbps\r\nWriting application                      : XviD4PSP 7.0 / 56.15.102\r\n\r\nVideo\r\nID                                       : 0\r\nFormat                                   : MPEG-4 Visual\r\nFormat profile                           : Advanced   \r\nFormat settings, BVOP                    : 1\r\nFormat settings, QPel                    : No\r\nFormat settings, GMC                     : No warppoints\r\nFormat settings, Matrix                  : Default (H.263)\r\nCodec ID                                 : XVID\r\nCodec ID/Hint                            : XviD\r\nDuration                                 : 21mn 38s\r\nBit rate                                 : 1 200 Kbps\r\nWidth                                    : 720 pixels\r\nHeight                                   : 400 pixels\r\nDisplay aspect ratio                     : 16:9\r\nFrame rate                               : 23.976 fps\r\nColor space                              : YUV\r\nChroma subsampling                       : 4:2:0\r\nBit depth                                : 8 bits\r\nScan type                                : Progressive\r\nCompression mode                         : Lossy\r\nBits/(Pixel*Frame)                       : 0.174\r\nStream size                              : 186 MiB (67%)\r\nTitle                                    : Original\r\nWriting library                          : XviD 64\r\n\r\nAudio #1\r\nID                                       : 1\r\nFormat                                   : AC-3\r\nFormat/Info                              : Audio Coding 3\r\nMode extension                           : CM (complete main)\r\nFormat settings, Endianness              : Big\r\nCodec ID                                 : 2000\r\nDuration                                 : 21mn 39s\r\nBit rate mode                            : Constant\r\nBit rate                                 : 192 Kbps\r\nChannel(s)                               : 2 channels\r\nChannel positions                        : Front: L R\r\nSampling rate                            : 48.0 KHz\r\nBit depth                                : 16 bits\r\nCompression mode                         : Lossy\r\nStream size                              : 29.7 MiB (11%)\r\nAlignment                                : Aligned on interleaves\r\nInterleave, duration                     : 32 ms (0.77 video frame)\r\nTitle                                    : 2x2\r\n\r\nAudio #2\r\nID                                       : 2\r\nFormat                                   : AC-3\r\nFormat/Info                              : Audio Coding 3\r\nMode extension                           : CM (complete main)\r\nFormat settings, Endianness              : Big\r\nCodec ID                                 : 2000\r\nDuration                                 : 21mn 38s\r\nBit rate mode                            : Constant\r\nBit rate                                 : 384 Kbps\r\nChannel(s)                               : 6 channels\r\nChannel positions                        : Front: L C R, Side: L R, LFE\r\nSampling rate                            : 48.0 KHz\r\nBit depth                                : 16 bits\r\nCompression mode                         : Lossy\r\nStream size                              : 59.5 MiB (21%)\r\nAlignment                                : Aligned on interleaves\r\nInterleave, duration                     : 32 ms (0.77 video frame)\r\nTitle                                    : Original","torrent":{"xt":"urn:btih:c3aaae262b190db1a941debf5f26bad881d296f8","amp;dn":"Simpsony.26.sezon","amp;tr":["udp%3A%2F%2Ftracker.leechers-paradise.org%3A6969","udp%3A%2F%2Fzer0day.ch%3A1337","udp%3A%2F%2Fopen.demonii.com%3A1337","udp%3A%2F%2Ftracker.coppersurfer.tk%3A6969","udp%3A%2F%2Fexodus.desync.com%3A6969"],"infoHash":"c3aaae262b190db1a941debf5f26bad881d296f8","infoHashBuffer":{"type":"Buffer","data":[195,170,174,38,43,25,13,177,169,65,222,191,95,38,186,216,129,210,150,248]},"announce":[],"urlList":[]}}